<svg xmlns="http://www.w3.org/2000/svg" width="107.94" height="93.499" viewBox="0 0 107.94 93.499"><defs><style>.a{fill:#683092;}</style></defs><g transform="translate(0 -34.249)"><g transform="translate(69.96 34.249)"><g transform="translate(0 0)"><path class="a" d="M340.2,37.27a1.581,1.581,0,0,0-2-1.01l-.561.184V35.83a1.581,1.581,0,1,0-3.162,0v.614l-.561-.184a1.581,1.581,0,1,0-.985,3.005l.583.191-.367.51a1.583,1.583,0,0,0,1.282,2.505c.922,0,1.28-.651,1.63-1.138l.346.48a1.581,1.581,0,1,0,2.566-1.848l-.367-.51.583-.191A1.581,1.581,0,0,0,340.2,37.27Z" transform="translate(-331.843 -34.249)"/></g></g><g transform="translate(85.595 51.221)"><g transform="translate(0 0)"><path class="a" d="M414.361,117.775a1.581,1.581,0,0,0-2-1.01l-.561.184v-.614a1.581,1.581,0,1,0-3.162,0v.614l-.561-.184a1.581,1.581,0,1,0-.985,3l.583.191-.367.51a1.581,1.581,0,0,0,2.567,1.848l.345-.48c.332.461.7,1.138,1.63,1.138a1.583,1.583,0,0,0,1.282-2.505l-.367-.51.583-.191A1.581,1.581,0,0,0,414.361,117.775Z" transform="translate(-406.006 -114.754)"/></g></g><g transform="translate(71.673 49.185)"><g transform="translate(0 0)"><circle class="a" cx="1.66" cy="1.66" r="1.66" transform="translate(0)"/></g></g><g transform="translate(96.555 74.602)"><g transform="translate(0 0)"><circle class="a" cx="1.581" cy="1.581" r="1.581"/></g></g><g transform="translate(80.525 62.464)"><g transform="translate(0 0)"><ellipse class="a" cx="1.66" cy="1.107" rx="1.66" ry="1.107" transform="translate(0 0)"/></g></g><g transform="translate(97.122 42.546)"><g transform="translate(0 0)"><ellipse class="a" cx="1.66" cy="1.107" rx="1.66" ry="1.107" transform="translate(0 0)"/></g></g><g transform="translate(50.283 48.211)"><path class="a" d="M257.787,106.592a3.145,3.145,0,0,0-1.99-1.121,1.582,1.582,0,0,0-.455,3.131l-2.821,2.749a1.581,1.581,0,0,0-.455,1.4l.666,3.884h0c-4.645-2.444-3.828-2.428-8.439,0h0s0,0,0,0l.666-3.884a1.586,1.586,0,0,0-.453-1.4l-2.823-2.749,3.9-.567a1.583,1.583,0,0,0,1.189-.865l1.746-3.533.687,1.394a1.582,1.582,0,1,0,2.837-1.4l-.689-1.393a3.165,3.165,0,0,0-5.673,0l-1.374,2.787c-3.137.456-4.118.392-5.068,1.568a3.165,3.165,0,0,0-.717,2.018c-.012,1.64.946,2.245,3.181,4.425l-.525,3.065a3.149,3.149,0,0,0,.911,2.8,3.166,3.166,0,0,0,2.209.9c.987,0,1.335-.3,4.218-1.813h0l2.751,1.446a3.166,3.166,0,0,0,4.634-2.789,3.1,3.1,0,0,0-.046-.544l-.525-3.065,2.226-2.169A3.158,3.158,0,0,0,257.787,106.592Z" transform="translate(-238.511 -100.475)"/></g><g transform="translate(0 68.659)"><g transform="translate(0 0)"><path class="a" d="M106.359,211.229H85.314l.75-.731a3.562,3.562,0,0,0-1.974-6.075l-4.061-.59-1.816-3.68a3.562,3.562,0,0,0-6.387,0l-1.816,3.68-4.061.59a3.562,3.562,0,0,0-1.974,6.075l.75.731H59.069a3.158,3.158,0,0,0-.907-2.558l-8.944-8.944a3.166,3.166,0,0,0-4.472,0l-5.5,5.5-6.061-6.061a5.8,5.8,0,0,0-9.7,2.6L20.312,213.6a7.855,7.855,0,0,0-4.181,4.181L4.3,220.948a5.8,5.8,0,0,0-2.6,9.7l6.061,6.061-5.5,5.5a3.161,3.161,0,0,0,0,4.472l8.944,8.945a3.166,3.166,0,0,0,4.472,0l41.237-41.238h47.864v37.421a1.589,1.589,0,0,1-1.581,1.581H49.859a1.589,1.589,0,0,1-1.581-1.581V231.647a1.581,1.581,0,0,0-3.162,0v20.169a4.743,4.743,0,0,0,4.743,4.743H103.2a4.742,4.742,0,0,0,4.743-4.743v-39A1.584,1.584,0,0,0,106.359,211.229Zm-79.823-8.642a2.635,2.635,0,0,1,4.409-1.181l6.061,6.061L29.7,214.775l1.908-7.12a1.581,1.581,0,1,0-3.054-.819l-1.836,6.854a7.85,7.85,0,0,0-2.96-.719ZM22.068,216.32a4.721,4.721,0,0,1,4.785,1.3l-6.7,6.7A4.743,4.743,0,0,1,22.068,216.32ZM3.938,228.412A2.636,2.636,0,0,1,5.119,224L15.5,221.22a7.855,7.855,0,0,0,.719,2.961L9.37,226.017a1.581,1.581,0,0,0,.818,3.055l7.12-1.908L10,234.473Zm9.5,24.981L4.5,244.449l6.621-6.621h0l29.242-29.242h0l6.621-6.621,8.946,8.943Zm70.417-45.16-3.073,3H69.256c-3.3-3.221-3.28-3.08-3.174-3.4s-.05-.218,5.206-.981a1.58,1.58,0,0,0,1.191-.865c2.358-4.777,2.2-4.648,2.542-4.648s.184-.129,2.542,4.648a1.581,1.581,0,0,0,1.191.865l4.884.71A.4.4,0,0,1,83.857,208.233Z" transform="translate(0 -197.466)"/></g></g></g></svg>