<svg xmlns="http://www.w3.org/2000/svg" width="87.832" height="87.832" viewBox="0 0 87.832 87.832"><defs><style>.a{fill:#683092;}</style></defs><g transform="translate(0.001)"><g transform="translate(74.252 17.876)"><path class="a" d="M445.134,109.7a4.216,4.216,0,0,1-4.211-4.211,1.289,1.289,0,0,0-2.578,0,4.216,4.216,0,0,1-4.211,4.211,1.289,1.289,0,0,0,0,2.578,4.216,4.216,0,0,1,4.211,4.211,1.289,1.289,0,1,0,2.578,0,4.216,4.216,0,0,1,4.211-4.211,1.289,1.289,0,0,0,0-2.578Zm-5.5,2.813a6.858,6.858,0,0,0-1.524-1.524,6.855,6.855,0,0,0,1.524-1.524,6.858,6.858,0,0,0,1.524,1.524A6.858,6.858,0,0,0,439.634,112.517Z" transform="translate(-432.844 -104.203)"/></g><g transform="translate(-0.001 17.876)"><g transform="translate(0)"><path class="a" d="M12.289,109.7a4.216,4.216,0,0,1-4.211-4.211,1.289,1.289,0,0,0-2.578,0A4.216,4.216,0,0,1,1.288,109.7a1.289,1.289,0,0,0,0,2.578A4.216,4.216,0,0,1,5.5,116.493a1.289,1.289,0,1,0,2.578,0,4.216,4.216,0,0,1,4.211-4.211,1.289,1.289,0,0,0,0-2.578Zm-5.5,2.813a6.854,6.854,0,0,0-1.524-1.524,6.85,6.85,0,0,0,1.524-1.524,6.854,6.854,0,0,0,1.524,1.524A6.862,6.862,0,0,0,6.788,112.517Z" transform="translate(0.001 -104.203)"/></g></g><g transform="translate(35.751)"><path class="a" d="M223.446,6.875a5.592,5.592,0,0,1-5.586-5.586,1.289,1.289,0,1,0-2.578,0A5.593,5.593,0,0,1,209.7,6.875a1.289,1.289,0,1,0,0,2.578,5.593,5.593,0,0,1,5.586,5.586,1.289,1.289,0,0,0,2.578,0,5.593,5.593,0,0,1,5.586-5.586,1.289,1.289,0,0,0,0-2.579Zm-6.875,3.765a8.236,8.236,0,0,0-2.476-2.476,8.236,8.236,0,0,0,2.476-2.476,8.237,8.237,0,0,0,2.476,2.476A8.237,8.237,0,0,0,216.571,10.641Z" transform="translate(-208.406)"/></g><g transform="translate(16.66 27.501)"><path class="a" d="M151.216,176.3,146.2,162.091a2.668,2.668,0,0,0-2.512-1.778H104.72a2.668,2.668,0,0,0-2.512,1.777L97.193,176.3a1.3,1.3,0,0,0,1.216,1.718H150a1.289,1.289,0,0,0,1.216-1.718Zm-50.985-.86,4.408-12.49a.088.088,0,0,1,.081-.057h38.969a.089.089,0,0,1,.081.057l4.408,12.49Z" transform="translate(-97.122 -160.313)"/></g><g transform="translate(60.33 60.503)"><path class="a" d="M359.851,352.689c-4.578,0-8.164,2.378-8.164,5.414s3.586,5.414,8.164,5.414,8.164-2.378,8.164-5.414S364.43,352.689,359.851,352.689Zm0,8.25c-3.2,0-5.586-1.5-5.586-2.836s2.389-2.836,5.586-2.836,5.586,1.5,5.586,2.836S363.049,360.939,359.851,360.939Z" transform="translate(-351.687 -352.689)"/></g><g transform="translate(10.828 60.503)"><path class="a" d="M71.287,352.689c-4.578,0-8.164,2.378-8.164,5.414s3.586,5.414,8.164,5.414,8.164-2.378,8.164-5.414S75.866,352.689,71.287,352.689Zm0,8.25c-3.2,0-5.586-1.5-5.586-2.836s2.389-2.836,5.586-2.836,5.586,1.5,5.586,2.836S74.485,360.939,71.287,360.939Z" transform="translate(-63.123 -352.689)"/></g><g transform="translate(1.202 23.376)"><path class="a" d="M90.806,154.142H83.931a1.289,1.289,0,0,0-1.251.976l-.906,3.622L75.441,140.8a6.8,6.8,0,0,0-6.4-4.53H30.07a6.8,6.8,0,0,0-6.4,4.53l-6.334,17.945-.906-3.622a1.289,1.289,0,0,0-1.251-.976H8.3a1.289,1.289,0,0,0-1.289,1.289v5.5A1.289,1.289,0,0,0,8.3,162.221h7.12l-4.395,6.153a6.752,6.752,0,0,0-1.264,3.946v16.113a6.783,6.783,0,0,0,2.752,5.455c0,.015,0,.03,0,.045v4.125a2.667,2.667,0,0,0,2.664,2.664h8.25a2.667,2.667,0,0,0,2.664-2.664v-2.836H73.016v2.836a2.667,2.667,0,0,0,2.664,2.664h8.25a2.667,2.667,0,0,0,2.664-2.664v-4.125c0-.015,0-.03,0-.045a6.783,6.783,0,0,0,2.752-5.455V172.32a6.752,6.752,0,0,0-1.265-3.946l-4.395-6.153h7.121a1.289,1.289,0,0,0,1.289-1.289v-5.5A1.289,1.289,0,0,0,90.806,154.142Zm-81.215,5.5V156.72h4.58l.73,2.922Zm13.923,38.416a.086.086,0,0,1-.086.086h-8.25a.086.086,0,0,1-.086-.086v-2.836h8.422Zm60.5,0a.086.086,0,0,1-.086.086H75.68a.086.086,0,0,1-.086-.086v-2.836h8.422Zm-1.461-5.414h-66a4.218,4.218,0,0,1-4.009-2.922h74.02A4.218,4.218,0,0,1,82.556,192.644ZM60.64,178.721v2.922H38.468v-2.922Zm-21.97-2.578a4.218,4.218,0,0,1,4.009-2.922H56.43a4.218,4.218,0,0,1,4.009,2.922Zm21.97,8.079v2.922H38.468v-2.922Zm25.342-14.35a4.188,4.188,0,0,1,.784,2.448v14.824H63.219v-9.711a6.8,6.8,0,0,0-6.789-6.789H42.679a6.8,6.8,0,0,0-6.789,6.789v9.711H12.341V172.319a4.187,4.187,0,0,1,.784-2.448l5.465-7.651H66.055a1.289,1.289,0,1,0,0-2.578H19.75L26.1,141.654a4.218,4.218,0,0,1,3.971-2.81H69.039a4.218,4.218,0,0,1,3.971,2.81l6.349,17.988h-7.8a1.289,1.289,0,1,0,0,2.578h8.962Zm3.534-10.23h-5.31l.73-2.922h4.58Z" transform="translate(-7.013 -136.266)"/></g><g transform="translate(13.578 56.378)"><path class="a" d="M88.694,328.642h-8.25a1.289,1.289,0,1,0,0,2.578h8.25a1.289,1.289,0,1,0,0-2.578Z" transform="translate(-79.154 -328.642)"/></g><g transform="translate(63.08 56.378)"><path class="a" d="M377.258,328.642h-8.25a1.289,1.289,0,0,0,0,2.578h8.25a1.289,1.289,0,0,0,0-2.578Z" transform="translate(-367.718 -328.642)"/></g></g></svg>