<svg xmlns="http://www.w3.org/2000/svg" width="97.521" height="97.515" viewBox="0 0 97.521 97.515"><defs><style>.a{fill:#e3001b;}.a,.b,.c{fill-rule:evenodd;}.b{fill:#1a1718;}.c{fill:#fff;}</style></defs><g transform="translate(-1026.934 -96.613)"><path class="a" d="M1042.063,96.613h67.262a15.176,15.176,0,0,1,15.129,15.129V179a15.176,15.176,0,0,1-15.129,15.129h-67.262A15.175,15.175,0,0,1,1026.934,179V111.742a15.175,15.175,0,0,1,15.129-15.129Z" transform="translate(0 0)"/><path class="b" d="M1037.805,121.915h18.531a2.707,2.707,0,0,0,1.551-.382c.367-.249.557-.373.557-.373a.274.274,0,0,1,.208.071.508.508,0,0,1,.119.249l2.288,10.136v.125a.409.409,0,0,1-.121.322.365.365,0,0,1-.273.137c-.261,0-.549-.442-.885-1.314a12.932,12.932,0,0,0-1.086-2.25,13.127,13.127,0,0,0-3.7-3.813,12.574,12.574,0,0,0-4.824-1.945v23.484a8.246,8.246,0,0,0,.26,2.5,2.1,2.1,0,0,0,.924,1.107,4.645,4.645,0,0,0,1.81.477c.822.082,1.233.293,1.233.622a.411.411,0,0,1-.171.384,1.2,1.2,0,0,1-.593.11h-13.349a1.33,1.33,0,0,1-.641-.11.422.422,0,0,1-.171-.384q0-.493,1.139-.615a6.125,6.125,0,0,0,1.693-.352,2.028,2.028,0,0,0,1.083-1.1,7.574,7.574,0,0,0,.32-2.646V122.882a12.538,12.538,0,0,0-4.829,1.937,13.268,13.268,0,0,0-3.7,3.821,12.476,12.476,0,0,0-1.1,2.264c-.322.866-.616,1.3-.877,1.3a.3.3,0,0,1-.241-.137.467.467,0,0,1-.111-.322v-.121l2.572-10.164a.4.4,0,0,1,.123-.205.343.343,0,0,1,.23-.093,3.379,3.379,0,0,1,.536.373,2.367,2.367,0,0,0,1.478.382Zm43.653.345a7.2,7.2,0,0,0-6.521,3.716q-2.257,3.719-2.265,10.757t2.265,10.765a7.553,7.553,0,0,0,13.012,0q2.228-3.719,2.237-10.765t-2.245-10.757a7.168,7.168,0,0,0-6.482-3.716Zm0-.924a15.592,15.592,0,0,1,11.33,4.349,15.918,15.918,0,0,1,0,22.116,15.538,15.538,0,0,1-11.329,4.383,17.486,17.486,0,0,1-5.3-.785,15.323,15.323,0,0,1-8.978-7.715,15.529,15.529,0,0,1-1.563-6.943,14.8,14.8,0,0,1,4.469-11.057,15.652,15.652,0,0,1,11.368-4.349Zm20.271.579h11.689a1.466,1.466,0,0,1,.7.137.49.49,0,0,1,.2.425c0,.274-.286.463-.849.559a4.623,4.623,0,0,0-1.259.366,2.3,2.3,0,0,0-1.081,1.115,7.982,7.982,0,0,0-.309,2.668v19.138a7.95,7.95,0,0,0,.308,2.678,2.229,2.229,0,0,0,1.105,1.129,4.956,4.956,0,0,0,1.21.33c.579.111.874.3.874.572,0,.212-.05.359-.166.426a1.644,1.644,0,0,1-.733.11h-11.689a1.593,1.593,0,0,1-.772-.117.487.487,0,0,1-.171-.419c0-.274.282-.462.842-.573a4.9,4.9,0,0,0,1.241-.352,2.217,2.217,0,0,0,1.1-1.129,7.314,7.314,0,0,0,.33-2.656V126.079a3.286,3.286,0,0,0-.442-1.76,2.6,2.6,0,0,0-1.274-1.048,4.952,4.952,0,0,0-.854-.2c-.63-.11-.943-.315-.943-.6a.447.447,0,0,1,.209-.425,1.448,1.448,0,0,1,.734-.137Z" transform="translate(2.19 9.074)"/><path class="c" d="M1037.684,121.368h18.535a2.691,2.691,0,0,0,1.548-.382l.56-.373a.273.273,0,0,1,.207.073.5.5,0,0,1,.12.249l2.287,10.135v.125a.434.434,0,0,1-.12.322.371.371,0,0,1-.274.137c-.26,0-.555-.44-.885-1.312a12.744,12.744,0,0,0-1.086-2.252,13.123,13.123,0,0,0-3.7-3.812,12.624,12.624,0,0,0-4.827-1.945v23.481a8.176,8.176,0,0,0,.265,2.5,2.053,2.053,0,0,0,.923,1.107,4.552,4.552,0,0,0,1.812.477c.822.082,1.233.295,1.233.623a.411.411,0,0,1-.174.382,1.185,1.185,0,0,1-.59.11h-13.354a1.284,1.284,0,0,1-.632-.11.41.41,0,0,1-.174-.382c0-.329.381-.534,1.137-.612a6.267,6.267,0,0,0,1.7-.355,2.07,2.07,0,0,0,1.086-1.1,7.719,7.719,0,0,0,.314-2.648V122.335a12.522,12.522,0,0,0-4.827,1.938,13.162,13.162,0,0,0-3.7,3.819,12.351,12.351,0,0,0-1.1,2.267q-.482,1.3-.879,1.3a.3.3,0,0,1-.24-.137.462.462,0,0,1-.112-.322v-.125l2.572-10.164a.445.445,0,0,1,.126-.205.345.345,0,0,1,.227-.095,3.485,3.485,0,0,1,.548.373,2.338,2.338,0,0,0,1.475.382Zm43.653.347a7.2,7.2,0,0,0-6.519,3.715q-2.26,3.719-2.264,10.759t2.264,10.765a7.55,7.55,0,0,0,13.012,0q2.236-3.719,2.241-10.766t-2.249-10.759a7.164,7.164,0,0,0-6.481-3.714Zm0-.926a15.587,15.587,0,0,1,11.33,4.351,15.918,15.918,0,0,1,0,22.113,15.531,15.531,0,0,1-11.33,4.383,17.432,17.432,0,0,1-5.291-.786,14.776,14.776,0,0,1-4.52-2.353,14.626,14.626,0,0,1-4.461-5.359,15.566,15.566,0,0,1-1.561-6.946,14.773,14.773,0,0,1,4.468-11.054,15.637,15.637,0,0,1,11.368-4.351Zm20.264.579h11.689a1.494,1.494,0,0,1,.706.137.5.5,0,0,1,.2.426c0,.274-.288.463-.847.557a4.613,4.613,0,0,0-1.261.366,2.267,2.267,0,0,0-1.08,1.116,7.926,7.926,0,0,0-.306,2.669v19.131a7.876,7.876,0,0,0,.306,2.676,2.215,2.215,0,0,0,1.1,1.13,5.286,5.286,0,0,0,1.211.333c.581.105.873.3.873.57a.463.463,0,0,1-.167.425,1.634,1.634,0,0,1-.734.11H1101.6a1.623,1.623,0,0,1-.772-.116.485.485,0,0,1-.175-.418c0-.274.287-.464.849-.57a4.954,4.954,0,0,0,1.232-.355,2.231,2.231,0,0,0,1.1-1.131,7.3,7.3,0,0,0,.331-2.653V125.535a3.33,3.33,0,0,0-.443-1.761,2.6,2.6,0,0,0-1.278-1.048,4.814,4.814,0,0,0-.854-.2c-.63-.11-.946-.316-.946-.6a.456.456,0,0,1,.21-.426,1.481,1.481,0,0,1,.737-.137Z" transform="translate(2.146 8.87)"/></g></svg>